<?xml version="1.0" encoding="UTF-8" standalone="no"?>
<svg
   id="Layer_1"
   data-name="Layer 1"
   viewBox="0 0 135 135"
   version="1.1"
   sodipodi:docname="Website logo_final.svg"
   inkscape:export-filename="../../../../../Pictures/ape_simple_logo.png"
   inkscape:export-xdpi="404.26108"
   inkscape:export-ydpi="404.26108"
   inkscape:version="1.2.1 (9c6d41e, 2022-07-14)"
   width="135"
   height="135"
   xmlns:inkscape="http://www.inkscape.org/namespaces/inkscape"
   xmlns:sodipodi="http://sodipodi.sourceforge.net/DTD/sodipodi-0.dtd"
   xmlns="http://www.w3.org/2000/svg"
   xmlns:svg="http://www.w3.org/2000/svg">
  <sodipodi:namedview
     id="namedview45"
     pagecolor="#ffffff"
     bordercolor="#000000"
     borderopacity="0.25"
     inkscape:showpageshadow="2"
     inkscape:pageopacity="0.0"
     inkscape:pagecheckerboard="0"
     inkscape:deskcolor="#d1d1d1"
     showgrid="false"
     inkscape:zoom="4.9660954"
     inkscape:cx="72.793608"
     inkscape:cy="69.068347"
     inkscape:window-width="1512"
     inkscape:window-height="840"
     inkscape:window-x="331"
     inkscape:window-y="94"
     inkscape:window-maximized="0"
     inkscape:current-layer="Layer_1" />
  <defs
     id="defs4">
    <style
       id="style2">.cls-1{fill:#e7e7e8;}.cls-2{fill:#e5584a;}.cls-3{fill:#d64b3c;}.cls-4{fill:#f2634c;}.cls-5{fill:#ce4136;}.cls-6{fill:#b3b3b3;}.cls-7{fill:#e6e7e8;}.cls-8{fill:#999;}.cls-9{fill:#666;}.cls-10{fill:#4d4d4d;}</style>
  </defs>
  <ellipse
     class="cls-1"
     cx="67.409996"
     cy="49.989998"
     rx="80.919998"
     ry="82.169998"
     id="ellipse6"
     style="display:none" />
  <circle
     class="cls-7"
     cx="52.100002"
     cy="47.989998"
     r="5.6300001"
     id="circle26"
     style="display:none" />
  <g
     id="g671"
     transform="translate(-13.51,-16.070765)">
    <circle
       class="cls-2"
       cx="127.43"
       cy="79.910004"
       r="19.889999"
       id="circle8" />
    <circle
       class="cls-2"
       cx="34.32"
       cy="78.059998"
       r="19.889999"
       id="circle10" />
    <path
       class="cls-3"
       d="m 91.7,56.07 h 2 a 13,13 0 0 0 0.68,-3.2 14,14 0 0 0 -1.32,-7.13"
       transform="translate(-11.42,-13.56)"
       id="path12" />
    <path
       class="cls-4"
       d="M 93.1,45.75 89.37,56.07 H 93.1"
       transform="translate(-11.42,-13.56)"
       id="path14" />
    <path
       class="cls-5"
       d="M 64.21,94.1 A 19.89498,19.89498 0 0 0 24.93,87.75"
       transform="translate(-11.42,-13.56)"
       id="path16" />
    <circle
       class="cls-4"
       cx="81.540001"
       cy="85.709999"
       r="46.439999"
       id="circle18" />
    <path
       class="cls-6"
       d="m 130.09,90.79 c 0,-10.48 -8.93,-19 -19.94,-19 -6.95054,-0.04532 -12.849983,3.780485 -16.566765,9.653956 C 89.85872,75.56613 82.778215,71.746117 75.82,71.81 c -11,0 -19.94,8.5 -19.94,19 0.0527,6.657547 3.630002,12.78843 9.4,16.11 1.66,13.53 13.847188,23.99609 28.507188,23.99609 15.000002,0 27.152812,-10.99609 28.362812,-24.93609 4.95181,-3.4775 7.91123,-9.139164 7.94,-15.19 z"
       transform="translate(-11.42,-13.56)"
       id="path20"
       style="fill:#ffffff;fill-opacity:1"
       sodipodi:nodetypes="ccccccscc" />
    <path
       class="cls-5"
       d="m 120.47,96.22 a 19.894183,19.894183 0 1 1 39.28,-6.34"
       transform="translate(-11.42,-13.56)"
       id="path22" />
    <path
       class="cls-3"
       d="m 93.1,52.84 a 46.44,46.44 0 1 1 0,92.87"
       transform="translate(-11.42,-13.56)"
       id="path24" />
    <path
       class="cls-8"
       d="M 92.675169,130.89828 C 107.38476,131.48201 120.46948,120.61059 122.1,105.98 c 4.97456,-3.46431 7.9575,-9.128164 8,-15.19 0,-10.14 -9.77,-18.84 -19.94,-19 -10.17,-0.16 -16.969852,8.723142 -17.589852,9.653142"
       transform="translate(-11.42,-13.56)"
       id="path28"
       style="fill:#ffffff;fill-opacity:1"
       sodipodi:nodetypes="cccsc" />
  </g>
  <circle
     class="cls-7"
     cx="80.889999"
     cy="47.75"
     r="5.6300001"
     id="circle30"
     style="display:none" />
  <path
     class="cls-9"
     d="m 80.89,42.13 a 5.63,5.63 0 1 1 0,11.26"
     id="path32"
     style="display:none" />
  <path
     class="cls-9"
     d="m 52.07,42.36 a 5.63,5.63 0 0 1 0,11.26"
     id="path34"
     style="display:none" />
  <path
     class="cls-7"
     d="m 65.35,65.19 a 1.57,1.57 0 1 1 0,-3.14"
     id="path36"
     style="display:none" />
  <path
     class="cls-10"
     d="m 65.35,62.05 a 1.57,1.57 0 1 1 0,3.14"
     id="path38"
     style="display:none" />
  <path
     class="cls-7"
     d="m 70.66,65.19 a 1.57,1.57 0 0 1 0,-3.14"
     id="path40"
     style="display:none" />
  <path
     class="cls-10"
     d="m 70.66,62.05 a 1.57,1.57 0 0 1 0,3.14"
     id="path42"
     style="display:none" />
</svg>
